<svg width="12" height="19" viewBox="0 0 12 19" fill="none" xmlns="http://www.w3.org/2000/svg">
<path d="M9.99586 18.9256C10.3963 18.9256 10.7727 18.7778 11.0564 18.5095C11.3396 18.241 11.4958 17.8841 11.4958 17.5045C11.4958 17.125 11.3396 16.7681 11.0564 16.4997L4.11693 9.92553L11.0564 3.35138C11.3396 3.08296 11.4958 2.72609 11.4958 2.34654C11.4958 1.967 11.3396 1.61009 11.0564 1.34171C10.7732 1.07332 10.3963 0.925598 9.99586 0.925598C9.59545 0.925598 9.21849 1.07329 8.93531 1.34157L0.935298 8.92069C0.652081 9.18911 0.49585 9.54598 0.49585 9.92553C0.49585 10.3051 0.652117 10.662 0.935298 10.9304L8.93531 18.5093C9.21901 18.7778 9.59548 18.9256 9.99586 18.9256Z" fill="#1E3396"/>
</svg>
