<svg width="26" height="37" viewBox="0 0 26 37" fill="none" xmlns="http://www.w3.org/2000/svg">
<path d="M12.8664 0C18.5641 11.1585 -14.0948 21.9825 7.43302 37C5.81054 29.6923 8.38857 24.9926 12.8664 21.4724C11.1629 27.1394 15.4466 30.9653 14.2761 35.0732C16.1599 34.4439 17.2406 33.1302 18.1529 31.673C19.5373 33.0301 20.1076 34.7947 19.7976 37C26.8742 32.2184 28.0083 26.2624 22.6171 19.0167C22.3364 21.7844 20.5255 23.3134 18.1529 23.9801C23.1967 11.8542 21.1257 4.83446 12.8664 0Z" fill="#1E3396"/>
<path d="M3.85407 11.9962C0.863895 8.88204 1.95123 4.31013 6.57241 1.69287C4.64692 6.66212 8.50924 8.02067 3.85407 11.9962Z" fill="#1E3396"/>
</svg>
