<svg width="30" height="30" viewBox="0 0 30 30" fill="none" xmlns="http://www.w3.org/2000/svg">
<path d="M26.5562 21.0513C27.2466 21.0513 27.8062 20.4916 27.8062 19.8013C27.8062 19.1109 27.2466 18.5513 26.5562 18.5513C25.8659 18.5513 25.3062 19.1109 25.3062 19.8013C25.3062 20.4916 25.8659 21.0513 26.5562 21.0513Z" fill="#1E3396"/>
<path d="M23.83 25.0774C24.5203 25.0774 25.08 24.5177 25.08 23.8274C25.08 23.137 24.5203 22.5774 23.83 22.5774C23.1396 22.5774 22.58 23.137 22.58 23.8274C22.58 24.5177 23.1396 25.0774 23.83 25.0774Z" fill="#1E3396"/>
<path d="M27.4962 16.2549C28.1866 16.2549 28.7462 15.6952 28.7462 15.0049C28.7462 14.3145 28.1866 13.7549 27.4962 13.7549C26.8059 13.7549 26.2462 14.3145 26.2462 15.0049C26.2462 15.6952 26.8059 16.2549 27.4962 16.2549Z" fill="#1E3396"/>
<path d="M19.7813 27.8088C20.4716 27.8088 21.0313 27.2492 21.0313 26.5588C21.0313 25.8685 20.4716 25.3088 19.7813 25.3088C19.0909 25.3088 18.5312 25.8685 18.5312 26.5588C18.5312 27.2492 19.0909 27.8088 19.7813 27.8088Z" fill="#1E3396"/>
<path d="M15 26.25C13.1996 26.2522 11.425 25.8222 9.82532 24.9963C8.2256 24.1703 6.84747 22.9725 5.8067 21.5035C4.76594 20.0345 4.09295 18.3371 3.84426 16.554C3.59557 14.7709 3.77846 12.9542 4.37755 11.2564C4.97665 9.55865 5.97445 8.02948 7.28713 6.79735C8.59982 5.56522 10.189 4.66613 11.9213 4.17562C13.6535 3.6851 15.4782 3.61748 17.242 3.97844C19.0058 4.33941 20.6572 5.11841 22.0575 6.25H20C19.6685 6.25 19.3505 6.3817 19.1161 6.61612C18.8817 6.85054 18.75 7.16848 18.75 7.5C18.75 7.83152 18.8817 8.14946 19.1161 8.38388C19.3505 8.6183 19.6685 8.75 20 8.75H25C25.3315 8.75 25.6494 8.6183 25.8839 8.38388C26.1183 8.14946 26.25 7.83152 26.25 7.5V2.5C26.25 2.16848 26.1183 1.85054 25.8839 1.61612C25.6494 1.3817 25.3315 1.25 25 1.25C24.6685 1.25 24.3505 1.3817 24.1161 1.61612C23.8817 1.85054 23.75 2.16848 23.75 2.5V4.41375C22.0501 3.00843 20.0371 2.03284 17.8808 1.56937C15.7245 1.10591 13.4884 1.16819 11.3612 1.75095C9.23409 2.33371 7.27844 3.41984 5.65946 4.91759C4.04049 6.41534 2.80574 8.28072 2.05952 10.3562C1.3133 12.4316 1.07753 14.6562 1.37211 16.8419C1.66669 19.0277 2.48298 21.1105 3.75202 22.9143C5.02107 24.7182 6.70559 26.1901 8.66332 27.2058C10.621 28.2215 12.7944 28.7512 15 28.75C15.3315 28.75 15.6494 28.6183 15.8839 28.3839C16.1183 28.1495 16.25 27.8315 16.25 27.5C16.25 27.1685 16.1183 26.8505 15.8839 26.6161C15.6494 26.3817 15.3315 26.25 15 26.25Z" fill="#1E3396"/>
<path d="M19.6337 19.6337C19.8681 19.3993 19.9997 19.0815 19.9997 18.75C19.9997 18.4185 19.8681 18.1007 19.6337 17.8663L16.25 14.4825V7.5C16.25 7.16848 16.1183 6.85054 15.8839 6.61612C15.6495 6.3817 15.3315 6.25 15 6.25C14.6685 6.25 14.3505 6.3817 14.1161 6.61612C13.8817 6.85054 13.75 7.16848 13.75 7.5V15C13.7501 15.3315 13.8818 15.6494 14.1163 15.8837L17.8663 19.6337C18.1007 19.8681 18.4185 19.9997 18.75 19.9997C19.0815 19.9997 19.3993 19.8681 19.6337 19.6337Z" fill="#1E3396"/>
</svg>
