<svg width="603" height="598" viewBox="0 0 603 598" fill="none" xmlns="http://www.w3.org/2000/svg"><path d="M-3 1.132v568.311c10.236 6.774 22.715 13.65 38.353 19.083 7.393 2.583 32 10.494 64.862 9.364 35.075-1.184 62.056-12.539 77.435-19.805 50.936-24.154 94.388-61.911 142.271-103.519 43.123-37.471 89.839-78.066 148.854-114.66 25.548-15.841 45.901-26.286 62.335-34.72 32.199-16.523 49.357-25.329 61.076-51.874 25.686-58.07 4.371-153.329-55.419-194.069-52.217-35.528-113.548-15.902-178.521 4.89-68.98 22.073-142.065 45.459-212.703 5.55-22.786-12.877-40.629-29.735-57.162-45.355C61.455 18.888 38.003-3.269 2.329.4A79.36 79.36 0 00-3 1.132z" fill="url(#paint0_linear_306_21754)"/><defs><linearGradient id="paint0_linear_306_21754" x1="162.28" y1="202.394" x2="584.628" y2="44.42" gradientUnits="userSpaceOnUse"><stop stop-color="#fff"/><stop offset="1" stop-color="#fff" stop-opacity="0"/></linearGradient></defs></svg>