<svg width="123" height="70" viewBox="0 0 123 70" fill="none" xmlns="http://www.w3.org/2000/svg"><path d="M44.878 19.75h10.163c.189-1.837.706-4.53 2.388-7.617C61.441 4.768 70.04-.066 78.692.002c4.716.037 8.109 1.521 10.73 2.668 0 0 7.918 3.463 13.8 13.516.041.07.154.264.078.422-.047.096-.151.146-.237.175-.318.108-4.523 1.222-10.571 2.955 10.283.044 20.214-.031 30.497.013-.038 4.845.038 10.28 0 15.125h-17.345c-.093.231-.296.384-.45.809-.399 1.096-.549 1.734-.794 2.409-.332.917-.659 1.839-1.057 2.728-.443.986-.94 1.952-1.459 2.905 0 0-1.576 2.785-3.458 4.993-4.876 5.721-13.664 9.192-22.09 8.063-10.675-1.43-19.637-10.329-21.323-21.888l-10.532-.087c.066 1.998.112 3.655.142 4.825.35 13.446.108 11.903.006 14.632-.097 2.547-.192 3.191-.344 3.864-.26 1.145-1.036 4.362-3.87 6.984-.4.37-.826.7-.826.7a12.177 12.177 0 01-2.442 1.463 83.802 83.802 0 01-7.063 2.464s-.426.118-1.315.216c-.645.071-1.26.09-1.782-.192-.124-.067-.324-.185-.326-.343-.004-.23.411-.436.676-.569.122-.06.182-.09.317-.136.554-.188 3.901-3.246 4.652-4.501 1.48-2.472 2.483-13.84.825-29.464-11.085 0-22.17.125-33.126.125-.018-4.934.019-10.19 0-15.125h32.996c-.066-2.62-.397-16.621-.35-16.908.045-.27.192-.349.192-.349.125-.087.273-.078.31-.077.371.012 11.27-.145 11.916.104a.779.779 0 01.203.12c.098.064.128.192.195.286.06.083-.064 4.016-.589 16.824zm38.594 15.125c-6.912 0-13.041-.107-20-.107 1.168 4.922 2.424 8.37 3.753 10.496.076.12 1.542 2.418 4.151 4.421 1.148.88 3.567 2.762 7.32 3.659 7.03 1.679 12.65-1.216 14.034-1.956 4.26-2.279 6.394-5.467 8.276-8.28.792-1.182 1.161-2.034 1.851-3.466.962-1.997 2.165-4.251 1.482-4.767a.616.616 0 00-.26-.125c-6.623-.048-13.265.094-19.888.125h-.719zM63.65 19.75c23.444.003 28.67-.012 28.692-.013.08-.01 0 .013.255-.064 1.854-1.304.076-10.267-5.942-14.248-5.092-3.368-12.975-2.962-18.104 1.413-5.78 4.93-4.99 12.191-4.9 12.912z" fill="#fff"/><path d="M64.396 26.684c-.003 1.293-.003 2.23.005 2.435 0 .03.005.118-.052.186-.076.087-.217.087-.282.087-.417.005-.383-.225-.383-.482 0-.248.03-1.088.013-2.776-.003-.172-.008-.477.177-.585.143-.082.342-.012.394.003.156.047.292.155.415.328.532.742 1.108 1.454 1.737 2.265.075-1.25.117-2.123.099-2.346-.003-.032-.013-.14.055-.204.06-.06.166-.06.287-.058.117.003.221 0 .284.058.07.065.065.17.062.204-.033 1.14.053 2.283-.007 3.42 0 .02-.003.08-.047.123-.037.038-.09.043-.264.038-.195-.008-.297-.01-.365-.046a.457.457 0 01-.16-.14c-.529-.724-1.092-1.427-1.642-2.137-.068-.087-.144-.165-.326-.372zm-39.313.663c.519.272.787.635.673 1.157-.12.55-.572.798-1.096.848-.618.057-1.247.017-1.87.032-.276.008-.271-.155-.271-.337.002-1.06.008-2.123-.005-3.183-.003-.25.078-.34.341-.33.504.018 1.007.003 1.51.01.512.008.981.133 1.185.63.19.475-.024.86-.467 1.173zm-1.06.29c-.364.002-.636.005-.792.207-.154.198-.128.508.015.7.19.258.55.25.994.24.274-.005.532-.015.678-.195a.568.568 0 00.11-.342c0-.028 0-.208-.112-.358-.19-.26-.59-.255-.892-.252zm-.787-1.368a.528.528 0 000 .62c.18.248.569.245.811.243.25-.003.587-.005.744-.228.088-.125.088-.272.088-.302a.55.55 0 00-.114-.328c-.134-.155-.345-.16-.762-.162-.42-.003-.64 0-.767.157zm33.016 3.126c-1.218-.015-2.078-.853-2.058-2.01.019-1.108.908-1.878 2.145-1.86 1.218.02 2.091.835 2.078 1.942-.013 1.123-.936 1.943-2.165 1.928zm.079-3.298c-.767-.013-1.438.587-1.466 1.317-.029.71.628 1.36 1.398 1.38.78.02 1.434-.57 1.455-1.312.021-.732-.618-1.372-1.387-1.385zm-21.498 3.24c-.413.125-.59.045-.67-.02-.042-.035-.053-.06-.178-.283-.149-.262-.224-.395-.253-.422-.123-.108-.222-.053-.824-.065-.282-.005-.564.002-.843.005-.14 0-.258 0-.36.075-.083.062-.091.125-.206.347-.104.198-.154.298-.211.343-.078.062-.248.137-.644.015.555-1.193 1.113-2.38 1.653-3.573.11-.245.295-.207.493-.22.23-.017.352.055.449.273.509 1.165 1.046 2.325 1.594 3.525zm-2.113-3.093c-.243.55-.438.985-.626 1.42-.05.118-.052.235.125.24.34.008.678.013 1.017 0 .232-.01.167-.145.105-.28-.193-.417-.379-.837-.621-1.38zm41.397 3.14c-.558.03-.994-.157-1.419-.392-.242-.135-.258-.285-.13-.523.164-.305.3-.12.466-.024.37.21.767.35 1.203.302.234-.025.508-.07.563-.352.06-.303-.151-.46-.417-.553-.319-.112-.644-.212-.963-.32-.485-.165-.79-.473-.766-.985.023-.54.401-.84.897-.96a2.44 2.44 0 011.648.152c.17.08.39.126.216.41-.128.21-.198.343-.485.183a1.679 1.679 0 00-1.048-.188c-.193.026-.355.1-.415.285-.073.22.052.393.238.48.286.133.594.23.894.333.756.26 1.059.63.97 1.192-.086.548-.61.93-1.325.966l-.127-.006zm32.591.001c-.597.027-1.03-.16-1.45-.4-.245-.14-.24-.285-.115-.518.162-.297.279-.117.446-.027.389.21.798.367 1.26.3.224-.033.451-.09.493-.35.044-.27-.11-.443-.36-.533-.339-.122-.686-.217-1.022-.345-.472-.177-.754-.477-.717-1.01.033-.507.367-.772.803-.902.592-.175 1.191-.113 1.762.142.225.103.282.205.157.445-.125.24-.224.26-.454.138a1.742 1.742 0 00-1.048-.195c-.209.025-.402.085-.449.317-.044.225.081.38.277.463.292.125.597.225.897.33.719.25 1.032.617.97 1.14-.065.532-.61.952-1.301 1.002-.081.008-.162.003-.149.003zm-22.366-2.483c0 .327.016.657-.003.985-.052.91-.639 1.465-1.567 1.505-1.099.045-1.797-.413-1.897-1.35-.078-.745-.023-1.503-.039-2.255-.005-.275.18-.243.363-.248.209-.007.344.033.339.28a59.67 59.67 0 000 1.795c.01.8.36 1.185 1.067 1.183.701-.003 1.035-.378 1.048-1.195.01-.56.01-1.12 0-1.68-.005-.25.037-.388.355-.393.326-.005.352.148.344.388-.013.327-.002.655-.002.985h-.008zm-36.629 2.495c-.973-.015-1.782-.605-2.027-1.435-.237-.797.099-1.63.853-2.113.715-.46 1.836-.427 2.493.07.126.096.293.175.113.353-.128.125-.21.375-.467.165-.272-.218-.585-.353-.937-.343-.566.018-1.004.255-1.254.76-.259.523-.186 1.036.188 1.466.341.395.832.53 1.364.415.21-.046.443-.108.605-.235.284-.22.41 0 .527.147.188.235-.105.29-.22.368-.388.255-.816.417-1.238.382zm-30.735-2.332c0 .462.018.925-.006 1.385-.026.515-.378.807-.86.912-.535.118-1.038-.002-1.434-.397-.157-.155-.019-.275.068-.405.093-.138.177-.18.333-.06.12.092.277.157.428.195.451.115.775-.023.8-.5.032-.595.006-1.193.016-1.79.005-.23-.102-.305-.326-.298-.26.01-.521-.005-.782.003-.24.007-.3-.11-.308-.32-.008-.22.102-.258.29-.255.503.005 1.004.012 1.507-.003.258-.007.297.113.292.318-.01.405-.003.81-.003 1.212-.002.003-.008.003-.015.003zm81.282.677v-.693c0-.864 0-.875-.903-.93-.25-.014-.354-.077-.357-.332-.003-.28.18-.247.357-.247.843 0 1.688.002 2.53 0 .193 0 .353-.003.35.262-.003.265-.128.305-.37.317-.895.046-.895.055-.895.94 0 .655-.01 1.31.005 1.963.008.263-.055.373-.36.37-.308-.002-.373-.12-.362-.377.015-.425.005-.848.005-1.273zm-8.383-.312c0-.52.01-1.04-.005-1.56-.008-.243.054-.338.33-.335.277 0 .337.1.332.34-.013.81.018 1.62-.016 2.427-.016.393.12.515.511.475.297-.03.603.002.903-.01.255-.01.36.078.354.332-.005.24-.122.285-.339.283a40.703 40.703 0 00-1.747.002c-.274.008-.339-.097-.334-.337.013-.54.005-1.078.005-1.617h.006z" fill="#000"/></svg>