<svg width="123" height="71" viewBox="0 0 123 71" fill="none" xmlns="http://www.w3.org/2000/svg"><path d="M44.878 20.25h10.163c.189-1.837.706-4.53 2.388-7.617C61.441 5.268 70.04.434 78.692.502c4.716.037 8.109 1.521 10.73 2.668 0 0 7.918 3.463 13.8 13.516.041.07.154.264.078.422-.047.096-.151.146-.237.175-.318.108-4.523 1.222-10.571 2.955 10.283.044 20.214-.031 30.497.013-.038 4.845.038 10.28 0 15.125h-17.345c-.093.231-.296.384-.45.809-.399 1.096-.549 1.734-.794 2.409-.332.917-.659 1.839-1.057 2.728-.443.986-.94 1.952-1.459 2.905 0 0-1.576 2.785-3.458 4.993-4.876 5.721-13.664 9.192-22.09 8.063-10.675-1.43-19.637-10.329-21.323-21.888l-10.532-.087c.066 1.998.112 3.655.142 4.825.35 13.446.108 11.903.006 14.632-.097 2.547-.192 3.191-.344 3.864-.26 1.145-1.036 4.362-3.87 6.984-.4.37-.826.7-.826.7a12.177 12.177 0 01-2.442 1.463 83.802 83.802 0 01-7.063 2.464s-.426.118-1.315.216c-.645.071-1.26.09-1.782-.192-.124-.067-.324-.185-.326-.343-.004-.23.411-.436.676-.569.122-.06.182-.09.317-.136.554-.188 3.901-3.246 4.652-4.501 1.48-2.472 2.483-13.84.825-29.464-11.085 0-22.17.125-33.126.125-.018-4.934.019-10.19 0-15.125h32.996c-.066-2.62-.397-16.621-.35-16.908.045-.27.192-.349.192-.349.125-.087.273-.078.31-.077.371.012 11.27-.145 11.916.104a.779.779 0 01.203.12c.098.064.128.192.195.286.06.083-.064 4.016-.589 16.824zm38.594 15.125c-6.912 0-13.041-.107-20-.107 1.168 4.922 2.424 8.37 3.753 10.496.076.12 1.542 2.418 4.151 4.421 1.148.88 3.567 2.762 7.32 3.659 7.03 1.679 12.65-1.216 14.034-1.956 4.26-2.279 6.394-5.467 8.276-8.28.792-1.182 1.161-2.034 1.851-3.466.962-1.997 2.165-4.251 1.482-4.767a.616.616 0 00-.26-.125c-6.623-.048-13.265.094-19.888.125h-.719zM63.65 20.25c23.444.003 28.67-.012 28.692-.013.08-.01 0 .013.255-.064 1.854-1.304.076-10.267-5.942-14.248-5.092-3.368-12.975-2.962-18.104 1.413-5.78 4.93-4.99 12.191-4.9 12.912z" fill="#000"/><path d="M64.184 27.454a181.64 181.64 0 00.006 2.863c0 .036.005.139-.055.218-.08.103-.227.103-.295.103-.438.006-.402-.265-.402-.568 0-.29.033-1.278.014-3.262-.003-.203-.009-.562.186-.688.15-.097.358-.015.412.003.164.055.306.182.435.385.558.873 1.162 1.71 1.82 2.663.08-1.47.124-2.496.105-2.757-.003-.039-.014-.165.057-.241.063-.071.175-.071.3-.068.124.003.233 0 .299.068.074.076.068.2.065.24-.035 1.341.055 2.684-.008 4.022a.217.217 0 01-.05.144c-.037.044-.092.05-.275.044-.205-.009-.312-.012-.383-.053a.504.504 0 01-.167-.164c-.555-.853-1.145-1.679-1.722-2.514-.071-.103-.15-.194-.342-.438zm-41.204.78c.544.32.826.746.705 1.36-.125.647-.598.938-1.148.997-.648.068-1.307.02-1.96.038-.29.01-.284-.182-.284-.396.002-1.247.008-2.496-.006-3.742-.003-.294.082-.4.358-.389.528.021 1.056.003 1.583.012.536.009 1.028.156 1.241.741.2.558-.024 1.011-.489 1.379zm-1.11.34c-.383.004-.667.006-.831.245-.161.232-.134.596.016.823.2.303.577.294 1.042.282.287-.006.558-.018.71-.23a.727.727 0 00.116-.402c0-.032 0-.244-.118-.42-.2-.306-.618-.3-.935-.297zm-.826-1.607a.677.677 0 00-.103.373c0 .023.005.203.103.356.19.29.596.288.85.285.263-.003.616-.006.78-.268.093-.147.093-.32.093-.355a.702.702 0 00-.12-.385c-.14-.183-.361-.189-.799-.191-.44-.003-.67 0-.804.185zm34.606 3.675c-1.277-.018-2.18-1.003-2.158-2.364.02-1.302.952-2.207 2.248-2.187 1.276.024 2.192.982 2.178 2.284-.013 1.32-.981 2.284-2.269 2.267zm.081-3.878c-.803-.014-1.506.691-1.536 1.55-.03.834.659 1.599 1.465 1.622.818.024 1.504-.67 1.526-1.543.022-.861-.648-1.614-1.455-1.629zm-22.532 3.809c-.432.147-.618.053-.703-.024-.043-.041-.054-.07-.186-.332-.155-.309-.235-.464-.265-.497-.128-.126-.232-.061-.864-.076-.295-.006-.59.003-.883.006-.147 0-.27 0-.377.088-.087.073-.096.147-.216.408-.11.233-.161.35-.221.403-.082.074-.26.162-.676.018.583-1.402 1.168-2.799 1.734-4.2.114-.289.308-.245.516-.26.24-.02.37.065.47.32.534 1.37 1.097 2.735 1.67 4.146zm-2.214-3.637c-.255.647-.46 1.159-.657 1.67-.052.138-.054.276.132.282.355.01.71.015 1.066 0 .243-.012.175-.17.11-.329-.203-.49-.397-.985-.651-1.623zm43.388 3.694c-.585.034-1.041-.186-1.487-.462-.254-.16-.27-.336-.136-.615.172-.358.314-.14.489-.03.388.248.804.412 1.26.357.246-.03.533-.083.59-.415.064-.356-.158-.54-.437-.65-.333-.132-.675-.25-1.009-.376-.508-.194-.828-.555-.803-1.158.024-.635.42-.988.94-1.129a2.304 2.304 0 011.728.18c.178.093.41.146.227.482-.134.246-.208.402-.509.214-.33-.206-.71-.28-1.099-.22-.202.029-.371.117-.434.335-.077.258.054.461.248.564.301.156.624.27.938.391.793.306 1.11.74 1.017 1.402-.09.644-.64 1.094-1.389 1.135l-.134-.006zm34.159-.001c-.626.032-1.079-.189-1.52-.47-.257-.165-.251-.336-.12-.61.17-.35.293-.137.468-.032.407.247.836.433 1.32.353.235-.038.473-.106.517-.411.046-.318-.115-.52-.378-.627-.355-.144-.719-.255-1.071-.405-.495-.209-.79-.562-.752-1.188.036-.597.385-.908.842-1.061.621-.206 1.249-.132 1.848.168.235.12.295.24.164.523-.131.282-.235.306-.476.162-.336-.2-.71-.286-1.099-.23-.218.03-.421.1-.47.374-.046.264.085.446.29.543.306.147.626.265.94.388.755.294 1.083.726 1.017 1.34-.068.627-.639 1.12-1.364 1.18-.084.008-.169.003-.156.003zM85.09 27.71c0 .386.016.774-.003 1.159-.054 1.07-.67 1.723-1.643 1.77-1.15.052-1.883-.485-1.987-1.588-.082-.876-.025-1.767-.041-2.651-.006-.324.189-.285.38-.291.218-.01.36.038.355.329a82.45 82.45 0 000 2.11c.011.941.377 1.394 1.118 1.39.736-.002 1.086-.443 1.1-1.404.01-.659.01-1.317 0-1.976-.006-.294.038-.455.371-.461.342-.006.37.173.361.455-.014.386-.003.77-.003 1.159h-.008zm-38.391 2.934c-1.02-.017-1.868-.711-2.125-1.687a2.313 2.313 0 01.894-2.484c.75-.54 1.925-.503 2.614.082.131.112.306.206.117.415-.134.147-.218.44-.489.194-.284-.256-.612-.415-.981-.403-.594.02-1.053.3-1.315.894-.271.614-.195 1.217.196 1.722.359.465.873.624 1.43.488.222-.052.465-.126.635-.276.297-.259.429 0 .552.174.197.276-.11.34-.23.432-.407.3-.856.49-1.298.45zm-32.213-2.743c0 .544.019 1.088-.006 1.628-.027.606-.396.95-.902 1.073-.56.139-1.088-.003-1.503-.467-.164-.182-.02-.323.07-.476.099-.162.187-.212.35-.07.126.108.29.184.449.229.473.135.812-.027.84-.588.032-.7.005-1.402.016-2.105.005-.27-.107-.359-.342-.35-.274.012-.547-.006-.82.003-.252.009-.315-.13-.323-.376-.008-.259.107-.303.304-.3.527.006 1.052.015 1.58-.003.27-.009.311.132.306.373-.011.477-.003.953-.003 1.426-.003.003-.008.003-.016.003zm85.192.796v-.815c0-1.017 0-1.029-.946-1.093-.263-.018-.372-.091-.375-.391-.002-.33.189-.291.375-.291.883 0 1.769.003 2.652 0 .202 0 .369-.003.366.309-.003.311-.134.358-.388.373-.938.053-.938.064-.938 1.105 0 .77-.011 1.54.005 2.308.009.308-.057.438-.377.435-.322-.003-.39-.141-.38-.444.017-.5.006-.997.006-1.496zm-8.787-.367c0-.61.011-1.222-.005-1.833-.009-.286.057-.397.347-.394.29 0 .352.117.347.4-.014.952.02 1.904-.016 2.854-.017.461.125.605.536.558.311-.035.631.003.945-.011.268-.012.378.09.372.39-.005.283-.128.336-.355.333a38.046 38.046 0 00-1.832.003c-.287.008-.355-.115-.35-.397.014-.635.006-1.267.006-1.902h.005z" fill="#fff"/></svg>