<svg width="633" height="627" viewBox="0 0 633 627" fill="none" xmlns="http://www.w3.org/2000/svg"><path d="M0 625.813V29.942C10.693 22.84 23.73 15.63 40.069 9.934 47.792 7.225 73.499-1.07 107.833.115c36.644 1.242 64.832 13.148 80.899 20.766 53.215 25.325 98.61 64.913 148.635 108.539 45.052 39.288 93.859 81.851 155.513 120.221 26.691 16.609 47.955 27.56 65.124 36.403 33.639 17.325 51.566 26.557 63.808 54.39 26.835 60.886 4.567 160.764-57.898 203.48-54.552 37.251-118.628 16.673-186.507-5.126-72.066-23.144-148.421-47.665-222.219-5.821-23.805 13.502-42.446 31.177-59.718 47.555-28.132 26.674-52.633 49.905-89.903 46.059A82.444 82.444 0 010 625.813z" fill="url(#paint0_linear_306_5800)"/><defs><linearGradient id="paint0_linear_306_5800" x1="172.674" y1="414.791" x2="614.304" y2="579.385" gradientUnits="userSpaceOnUse"><stop stop-color="#E9EDF9"/><stop offset="1" stop-color="#E9EDF9" stop-opacity=".01"/></linearGradient></defs></svg>