<svg width="29" height="22" viewBox="0 0 29 22" fill="none" xmlns="http://www.w3.org/2000/svg">
<path d="M20.8636 3.3C20.8636 2.64732 21.0876 2.0093 21.5071 1.46662C21.9267 0.923937 22.523 0.500968 23.2207 0.251199C23.9183 0.00142984 24.6861 -0.0639211 25.4267 0.06341C26.1674 0.190741 26.8477 0.505036 27.3817 0.966549C27.9157 1.42806 28.2793 2.01607 28.4266 2.6562C28.574 3.29634 28.4983 3.95986 28.2094 4.56286C27.9204 5.16585 27.431 5.68124 26.8031 6.04385C26.1752 6.40646 25.437 6.6 24.6818 6.6C23.6692 6.6 22.698 6.25232 21.982 5.63345C21.2659 5.01458 20.8636 4.17521 20.8636 3.3ZM1.77273 4.4H17.0455C17.383 4.4 17.7067 4.28411 17.9454 4.07782C18.1841 3.87153 18.3182 3.59174 18.3182 3.3C18.3182 3.00826 18.1841 2.72847 17.9454 2.52218C17.7067 2.31589 17.383 2.2 17.0455 2.2H1.77273C1.43518 2.2 1.11146 2.31589 0.872773 2.52218C0.63409 2.72847 0.5 3.00826 0.5 3.3C0.5 3.59174 0.63409 3.87153 0.872773 4.07782C1.11146 4.28411 1.43518 4.4 1.77273 4.4ZM9.40909 7.7C8.62134 7.70191 7.85356 7.91436 7.21101 8.30823C6.56845 8.7021 6.08258 9.25809 5.82 9.9H1.77273C1.43518 9.9 1.11146 10.0159 0.872773 10.2222C0.63409 10.4285 0.5 10.7083 0.5 11C0.5 11.2917 0.63409 11.5715 0.872773 11.7778C1.11146 11.9841 1.43518 12.1 1.77273 12.1H5.82C6.05349 12.6708 6.46413 13.175 7.007 13.5576C7.54987 13.9401 8.20404 14.1863 8.89791 14.269C9.59179 14.3518 10.2986 14.2679 10.9411 14.0267C11.5835 13.7855 12.1368 13.3962 12.5404 12.9014C12.944 12.4067 13.1824 11.8254 13.2294 11.2214C13.2764 10.6174 13.1302 10.0138 12.8069 9.4768C12.4836 8.93976 11.9956 8.48993 11.3963 8.17655C10.797 7.86316 10.1095 7.6983 9.40909 7.7ZM27.2273 9.9H17.0455C16.7079 9.9 16.3842 10.0159 16.1455 10.2222C15.9068 10.4285 15.7727 10.7083 15.7727 11C15.7727 11.2917 15.9068 11.5715 16.1455 11.7778C16.3842 11.9841 16.7079 12.1 17.0455 12.1H27.2273C27.5648 12.1 27.8885 11.9841 28.1272 11.7778C28.3659 11.5715 28.5 11.2917 28.5 11C28.5 10.7083 28.3659 10.4285 28.1272 10.2222C27.8885 10.0159 27.5648 9.9 27.2273 9.9ZM11.9545 17.6H1.77273C1.43518 17.6 1.11146 17.7159 0.872773 17.9222C0.63409 18.1285 0.5 18.4083 0.5 18.7C0.5 18.9917 0.63409 19.2715 0.872773 19.4778C1.11146 19.6841 1.43518 19.8 1.77273 19.8H11.9545C12.2921 19.8 12.6158 19.6841 12.8545 19.4778C13.0932 19.2715 13.2273 18.9917 13.2273 18.7C13.2273 18.4083 13.0932 18.1285 12.8545 17.9222C12.6158 17.7159 12.2921 17.6 11.9545 17.6ZM27.2273 17.6H23.18C22.8798 16.8661 22.289 16.2475 21.5121 15.8536C20.7352 15.4597 19.8222 15.3159 18.9345 15.4475C18.0468 15.5792 17.2415 15.9778 16.661 16.573C16.0804 17.1681 15.762 17.9215 15.762 18.7C15.762 19.4785 16.0804 20.2318 16.661 20.827C17.2415 21.4222 18.0468 21.8208 18.9345 21.9525C19.8222 22.0841 20.7352 21.9403 21.5121 21.5464C22.289 21.1525 22.8798 20.5339 23.18 19.8H27.2273C27.5648 19.8 27.8885 19.6841 28.1272 19.4778C28.3659 19.2715 28.5 18.9917 28.5 18.7C28.5 18.4083 28.3659 18.1285 28.1272 17.9222C27.8885 17.7159 27.5648 17.6 27.2273 17.6Z" fill="#1E3396"/>
</svg>
