<svg width="23" height="22" viewBox="0 0 23 22" fill="none" xmlns="http://www.w3.org/2000/svg"><path d="M1.421 21.083l1.363-5.01A10.037 10.037 0 011.417 11C1.417 5.43 5.931.916 11.5.916c5.57 0 10.084 4.514 10.084 10.083 0 5.57-4.515 10.084-10.084 10.084a10.038 10.038 0 01-5.072-1.367l-5.007 1.367zm6.44-14.815a.969.969 0 00-.374.101c-.11.062-.21.14-.296.23-.121.114-.19.213-.263.309a2.752 2.752 0 00-.57 1.692 3.5 3.5 0 00.333 1.424c.412.91 1.09 1.873 1.987 2.765.216.215.427.43.653.631a9.527 9.527 0 003.872 2.063l.574.088c.187.01.373-.004.56-.013.294-.015.581-.095.84-.233.133-.068.262-.142.387-.222 0 0 .043-.028.126-.09.136-.101.22-.173.333-.29a1.23 1.23 0 00.212-.305 2.83 2.83 0 00.189-.74c.024-.2.017-.308.014-.376-.004-.107-.094-.22-.191-.267l-.587-.263s-.877-.382-1.413-.626a.501.501 0 00-.178-.042.488.488 0 00-.382.129v-.003c-.005 0-.072.058-.801.941a.354.354 0 01-.371.131 1.428 1.428 0 01-.193-.066c-.125-.053-.168-.073-.254-.11l-.005-.002a6.06 6.06 0 01-1.583-1.008c-.127-.111-.245-.232-.366-.35a6.347 6.347 0 01-1.029-1.278l-.06-.096a.93.93 0 01-.102-.206c-.038-.149.062-.268.062-.268s.245-.268.359-.413c.094-.12.183-.246.265-.376.119-.192.156-.388.093-.54a83.907 83.907 0 00-.875-2.059c-.06-.135-.236-.232-.396-.25a3.001 3.001 0 00-.163-.017 3.414 3.414 0 00-.407.005z" fill="#E9EDF9"/></svg>