<svg width="23" height="22" viewBox="0 0 23 22" fill="none" xmlns="http://www.w3.org/2000/svg"><path d="M2.7 20.167a2.076 2.076 0 01-1.553-.672 2.254 2.254 0 01-.647-1.62V4.126c0-.63.216-1.169.647-1.617A2.07 2.07 0 012.7 1.835h17.6c.605 0 1.123.225 1.554.674.43.448.646.987.646 1.618v13.75c0 .63-.215 1.17-.646 1.619-.43.448-.949.672-1.554.672H2.7zm8.8-8.221c.092 0 .188-.015.288-.044.101-.028.198-.07.29-.128l7.782-5.07a.933.933 0 00.33-.358c.073-.143.11-.301.11-.473 0-.382-.156-.668-.468-.86-.311-.19-.632-.18-.962.03L11.5 9.854 4.13 5.042c-.33-.21-.65-.215-.962-.015a.952.952 0 00-.468.846c0 .191.037.358.11.5a.75.75 0 00.33.33l7.782 5.071c.092.057.189.1.29.128.1.03.196.044.288.044z" fill="#E9EDF9"/></svg>