<svg width="23" height="22" viewBox="0 0 23 22" fill="none" xmlns="http://www.w3.org/2000/svg"><path fill-rule="evenodd" clip-rule="evenodd" d="M3.433 1.467a1.467 1.467 0 00-1.466 1.466v16.134a1.467 1.467 0 001.466 1.466h16.134a1.467 1.467 0 001.466-1.466V2.933a1.467 1.467 0 00-1.466-1.466H3.433zM4.973 8.8H7.76v8.8H4.973V8.8zm2.97-2.926a1.577 1.577 0 11-3.153 0 1.577 1.577 0 013.153 0zM18.1 12.257c0-2.647-1.712-3.677-3.411-3.677a3.235 3.235 0 00-1.606.339c-.377.19-.772.622-1.077 1.376h-.078V8.8H9.3v8.808h2.796V12.92c-.04-.48.113-1.1.426-1.468.316-.37.763-.457 1.105-.501h.107c.889 0 1.549.55 1.549 1.936v4.718h2.795l.022-5.349z" fill="#E9EDF9"/></svg>